<svg role="img" viewBox="0 0 57.858 43.608" xmlns="http://www.w3.org/2000/svg"><title>iDAI.gazetteer</title><path fill="currentColor" d="M-4.366-3.368a1.561,1.561,0,0,0-1.093-.451S-7.6-5.149-9.227-4.651c0,0-1.876-.417-2.44-8.955,0,0-.687-11.8-10-9.877a6.549,6.549,0,0,0-2.5-.56,2.888,2.888,0,0,0-1.375-.525s6.187-2.007,5.953-4.341a23.268,23.268,0,0,1-6.324,2.559A1.914,1.914,0,0,1-27.2-24.124s.948,3.535-4.551,2.614a1.387,1.387,0,0,1-.9.28s.756,3.474-4.688,1.447c0,0,4.489,1.194,4.124-1.365,0,0-3.059.081-2.75-.867,0,0,4.971,1.509,5.108-1.556,0,0-3.437.28-3.437-.805,0,0,4.812,1.277,4.812-1.809,0,0-3.534.86-3.878-.443,0,0,4.985,1.127,4.531-1.945,0,0-3.932,1.044-3.883-.17,0,0,5.231.43,4.275-2.082,0,0-3.4,1.365-3.822.328,0,0,5.5-.376,3.822-2.587,0,0-3.245,1.454-3.6.451,0,0,5.28-.587,3.65-3.337,0,0-3.347,1.911-3.822.969,0,0,5.28-1.222,4.07-3.529,0,0-2.613,1.809-8.195,2.307,0,0-1.91.164-1.492,1.5,1.128,3.576.11,8.238-3.176,9.679s-3.086,2.811-3.086,2.811.09,1.365-.248-.361c-.3-1.5,1.911-2.873,2.5-3.209.687-.245,2.695-1.249,3.437-4.681a13.542,13.542,0,0,0-.385-4.642,1.016,1.016,0,0,1,.605-1.307,1.092,1.092,0,0,1,.255-.058c8.393-1.126,10.16-3.1,10.16-3.1.241-.1.522.471.522.471a17.707,17.707,0,0,0,4.194-1.639c3.63-4.033,2.062-4.593,2.062-4.593-2.812,3.331-7.631,5.058-7.631,5.058-.145-.348-.5,0-.5,0-3.238,2.627-8.841,3.167-8.841,3.167A1.733,1.733,0,0,0-39.686-35.4a1.688,1.688,0,0,0,.053.421c1.622,5.665-1.2,8.347-2.131,9.057-.364-.437-.089-3.276-.089-3.276.687-5.037-1.265-5.931-1.265-5.931-.88-.615-.646-.854-.646-.854,1.684-.389.873-2.1.873-2.1-.983-.39-2.062.853-2.145.928s-.1-.061-.1-.061c.317-1.106-.254-.621-.254-.621a4.839,4.839,0,0,1-2.015.116c-1.464-.116-1.086-.3-1.828-.328a.537.537,0,0,0-.629.42.536.536,0,0,0,0,.221.132.132,0,0,1,.161.091.128.128,0,0,1,0,.046c0,.178-.09.156-.09.156-3.127-.163-3.155,1.066-3.306,1.665s.124,1.263.234,1.011.522-1.011,1.278-.683a5.4,5.4,0,0,1,1.822,1.365.414.414,0,0,1-.145.287c-2.434,1.091-2.55-.055-2.55-.055-.083,2.921,2.289.887,2.866,1.174a7.525,7.525,0,0,0,2.344.43,4.293,4.293,0,0,0,1.883-.512c.145-.2.351.055.351.055-1.423,1.809-3.966.348-3.437.833s.192,1.925.192,1.925c-4,7.146-1.588,9.282-1.924,11.166a8.6,8.6,0,0,0,.907,4.361,59.367,59.367,0,0,0-2.358,6.525,24.323,24.323,0,0,1-1.677,3.9.981.981,0,0,1-.887.642c-1.814-.471-2.131.567-2.131.567v.034c-.963,0-.984.648-.984.648a1.8,1.8,0,0,0,.283,0c.041,0,.117.1.137.171v.047c-.048-.266-.206-.211-.206-.211-.86,0-.763-.239-.763-.239s.164-.751-.358-.963,0-.682,0-.682,8.16-10.852,1.781-13.228c-1.6-.593-1.526-.682-1.526-.682-.942-5.7.536-5.29.536-5.29a7.656,7.656,0,0,0-1.932-.355,6.406,6.406,0,0,0-1.814.328s1.478-.409.536,5.29c0,0,.076.1-1.52.683-6.386,2.375,1.781,13.227,1.781,13.227s.5.5,0,.683-.351.962-.351.962.1.239-.763.239c0,0-.234-.089-.234.417s.2.484.2.484h4.476a.131.131,0,0,0,.076,0,.666.666,0,0,0,.123.062c.042,0-.247-1.147.722-1.174.338.252.1-.048-.062.614,0,.573.516.594.86.546-.379-1.078.687-.921.687-.921-.145.9,0,.757.241.9s1.739-.1,1.691-.478.385-.621.687-.621a1,1,0,0,0,.6-.348s3.787-8.013,8.173-10.423c0,0-.385-2.19,1.107-2.73a3.14,3.14,0,0,0-.255,2.491,7.862,7.862,0,0,0,5.321-.887s8.689-5.7,11.459-2.491A9.63,9.63,0,0,0-19.1-8.085s5.829,1.987,2.976,5.4c0,0-1.7-.375-1.319.635,0,0-1.182-.321-1.237.553-.048.239-.1,1.147.687,1.052,0,0-.475-.969.467-.888,0,0-.426.682.646.935.076,0-.989-.983.756-1.105,0,0-1.154.573.131,1.01a5.4,5.4,0,0,1,2.125,0s1.2-.081.557-3.788c0,0-.509-1.058,0-3.883a.885.885,0,0,0-.417-1.185.889.889,0,0,0-.312-.084s-2.681.218-4.338-4.1c0,0,1.869-4.43-.385-7.72,0,0,4.517-1.263,5.747,8.648,0,0,.6,7.992,3.575,9.139,0,0,1.127,2,4.3.682,0,0,1.094-.28.811-.607ZM-46.837-36.982s-.365.511-.852.32l-.062-.034a.565.565,0,0,1,.034.184.514.514,0,0,1-.516.512.513.513,0,0,1-.516-.512.5.5,0,0,1,.357-.464,1.629,1.629,0,0,0-.44-.1c-.385,0-.337.192-.337.192s-.151-.526.378-.526a2.128,2.128,0,0,1,.949.239A1.381,1.381,0,0,0-46.837-36.982Zm3.094-.253h0s-.165-.2-.8.45l-.131-.055a1.115,1.115,0,0,1,1.2-.682s.5.866-.811,1.194l-.124-.17s.688-.1.688-.682Zm-4.269.709a.218.218,0,0,0-.219-.218.226.226,0,0,0-.228.218.219.219,0,0,0,.227.212h0a.212.212,0,0,0,.219-.2v-.007m31.9-4.483a.819.819,0,0,0-.371-.792c-2.186,3.577-7.563,5.024-7.563,5.024.75.717.048,2.095.048,2.095,8.407-3.372,7.9-6.326,7.9-6.326ZM-28.276-29.086c2.819-.368,3.355-1.55,3.438-1.973a.72.72,0,0,0-.228-.642,7.2,7.2,0,0,1-2.585.812,1.361,1.361,0,0,1-.6,1.8Zm10.023-2.2c.048-.28-.2-.28-.2-.28-1.6,1.33-6.222,2.58-6.222,2.58a2.729,2.729,0,0,1-1.237,1.965C-19.442-28.683-18.349-31.01-18.253-31.284Zm1.423-3.509c0-.717-.261-.559-.261-.559-1.671,2.648-7.095,4.341-7.095,4.341.4.559-.687,1.611-.687,1.611,6.62-1.55,8.036-4.682,8.036-5.392Zm-10.731,1.74c.453.73-.31,1.659-.31,1.659,3.63-.874,3.438-1.74,3.547-2.082a.869.869,0,0,0-.144-.648,20.735,20.735,0,0,1-3.094,1.071m.062-2.627a2.134,2.134,0,0,1-.475,1.876c.1-.075.385.13.385.13,2.853-.682,3.156-1.324,3.279-2.081s-.2-.847-.2-.847C-25.2-36.314-27.5-35.679-27.5-35.679Zm3.713,1.528a1.7,1.7,0,0,1-.736,2.082c.282,0,.453.451.453.451,5.706-2.048,7.837-5.461,7.837-6.075s-.316-.73-.316-.73c-2.186,3.01-7.238,4.272-7.238,4.272m-4.18,10.156a5.45,5.45,0,0,1-2.489.4,2.044,2.044,0,0,1-.907,1.672c3.017.314,3.63-1.215,3.63-1.631S-27.966-23.994-27.966-23.994Zm-2.1,0c2.221.218,3.691-1.5,3.664-2.143s-.227-.56-.227-.56c-2.062.512-2.324.479-2.358.444C-28.874-24.254-30.063-23.994-30.063-23.994Zm1.705-4.416c.227,1.433-.509,1.6-.509,1.6,3.183-.559,3.547-1.515,3.547-1.911s-.164-.478-.164-.478C-26.173-28.519-28.358-28.41-28.358-28.41ZM-18.1-41.071c1.891-1.781,1.444-3.256,1.444-3.256-.076-.587-.454-.45-.454-.45-2.626,4.245-10.03,6.027-10.03,6.027-.145,2.048-1.237,2.177-.976,2.157s.522.348.522.348A18.754,18.754,0,0,0-18.1-41.071m-2.316-1.6c0-.362-.3-.328-.3-.328a4.269,4.269,0,0,1-1.429,1.836C-20.26-41.883-20.411-42.306-20.411-42.668Zm-30.729,21.9a17.664,17.664,0,0,1-2.75-2.505c-.255-.58-2.1-2.375-2.558-2.245a18.71,18.71,0,0,1-2.365.164,4.814,4.814,0,0,0-1.169-.192c-.364,0-.481.512-.481.512a.234.234,0,0,0-.312-.106.236.236,0,0,0-.107.106s-.907.771-.516,1.5a.868.868,0,0,0,1.2.293.809.809,0,0,1-.357-.962.44.44,0,0,1,.491-.38.442.442,0,0,1,.251.119s-.42,0-.323.58c.068.443.563.532.818.54.062,0-.825-.805.509-1.024-.255,0-.228.45-.228.45.31,1.01.778.737.778.737s-.289-.545.783-.355.577.744,3.2,4.621,4.172,4.17,4.172,4.17c-1.031-3.078-.646-2.983-.646-4.17a3.727,3.727,0,0,0-.42-1.857ZM-34.284-1.061c.179.593,1.025.3,1.025.3-.338-.751.6-1.044.6-1.044.124-.211,1.265,0,.481.089a.685.685,0,0,0-.64.727.686.686,0,0,0,.069.256c.09.123.784.061,1.471,0a8.974,8.974,0,0,1,1.375,0c3.251-5.338,5.843-6.02,6.317-6.354a.47.47,0,0,0,.216-.63A.4.4,0,0,0-23.4-7.77a4.782,4.782,0,0,1-.329-2.505c-2.228-1.434-2.5-5.6-2.5-5.6a2.316,2.316,0,0,0-1.87-.779c-.144,0-1.443.089-1.47.267s.329.512.329.512A13.743,13.743,0,0,0-27.74-10.07,2.3,2.3,0,0,1-27.224-8.4c0,1.222-3.973,5.665-3.973,5.665-2.352-.594-2.111.593-2.111.593-.687.239-1.176.505-.99,1.106" transform="translate(64.594 45.351)"/></svg>
