<svg xmlns="http://www.w3.org/2000/svg" width="720" height="720" viewBox="0 0 540 540"><path fill-rule="evenodd" d="M434 280c0 46.391-37.609 84-84 84s-84-37.609-84-84 37.609-84 84-84 84 37.609 84 84M350 442.4c0 15.465-12.535 28-28 28s-28-12.535-28-28c0-15.461 12.535-28 28-28s28 12.539 28 28M277.2 78.398c0 15.465-12.535 28-28 28s-28-12.535-28-28c0-15.461 12.535-28 28-28s28 12.539 28 28M154 263.2c0 15.465-12.535 28-28 28s-28-12.535-28-28 12.535-28 28-28 28 12.535 28 28M557.2 414.4c0 15.465-12.535 28-28 28s-28-12.535-28-28c0-15.461 12.535-28 28-28s28 12.539 28 28M590.8 218.4c0 15.465-12.535 28-28 28s-28-12.535-28-28c0-15.461 12.535-28 28-28s28 12.539 28 28M490 156.8c0 15.465-12.535 28-28 28s-28-12.535-28-28 12.535-28 28-28 28 12.535 28 28" style="fill:#f3f6f9;fill-opacity:1" transform="matrix(1.09578 0 0 1.09578 -107.386 -34.516)"/><path fill="none" stroke="#000" stroke-width=".5" d="M90 50c0 22.091-17.909 40-40 40S10 72.091 10 50s17.909-40 40-40 40 17.909 40 40" style="stroke:#f3f6f9;stroke-opacity:1" transform="matrix(6.13636 0 0 6.13636 -30.682 -34.516)"/><path fill="none" stroke="#000" stroke-width=".5" d="M80 50c0 16.569-13.431 30-30 30-16.569 0-30-13.431-30-30 0-16.569 13.431-30 30-30 16.569 0 30 13.431 30 30" style="stroke:#f3f6f9;stroke-opacity:1" transform="matrix(6.13636 0 0 6.13636 -30.682 -34.516)"/></svg>