<?xml version="1.0" encoding="UTF-8" standalone="no"?>
<svg
   data-name="Layer 3 copy"
   viewBox="0 0 39.999989 40"
   x="0px"
   y="0px"
   version="1.1"
   id="svg3"
   sodipodi:docname="citation.svg"
   width="39.999989"
   height="40"
   inkscape:version="1.4 (e7c3feb100, 2024-10-09)"
   xmlns:inkscape="http://www.inkscape.org/namespaces/inkscape"
   xmlns:sodipodi="http://sodipodi.sourceforge.net/DTD/sodipodi-0.dtd"
   xmlns="http://www.w3.org/2000/svg"
   xmlns:svg="http://www.w3.org/2000/svg">
  <sodipodi:namedview
     id="namedview3"
     pagecolor="#ffffff"
     bordercolor="#000000"
     borderopacity="0.25"
     inkscape:showpageshadow="2"
     inkscape:pageopacity="0.0"
     inkscape:pagecheckerboard="0"
     inkscape:deskcolor="#d1d1d1"
     inkscape:zoom="5.2761559"
     inkscape:cx="25.302512"
     inkscape:cy="58.281067"
     inkscape:window-width="1163"
     inkscape:window-height="1119"
     inkscape:window-x="379"
     inkscape:window-y="36"
     inkscape:window-maximized="0"
     inkscape:current-layer="svg3" />
  <defs
     id="defs1">
    <style
       id="style1">
      .cls-1 {
        stroke-width: 0px;
      }
    </style>
  </defs>
  <g
     id="g3"
     transform="translate(-4,-4)">
    <path
       class="cls-1"
       d="M 13.23999,11.12 C 8.15002,11.12 4,15.26001 4,20.35999 c 0,4.71997 3.62,8.66998 8.21997,9.17999 0.12006,2.01001 -0.58997,3.91998 -2.13995,5.69 -0.36005,0.41003 -0.32001,1.03998 0.09998,1.41003 0.19,0.15997 0.41998,0.23999 0.66003,0.23999 0.25,0 0.5,-0.09003 0.69,-0.28003 0.08997,-0.04999 0.29999,-0.12 0.41998,-0.16998 0.19,-0.07001 0.37,-0.13 0.48999,-0.20001 4.02997,-2.03998 7.12,-5.06 8.71002,-8.5 0.91998,-2 1.42999,-4.33997 1.42999,-6.53998 0,-0.29999 -0.01001,-0.60004 -0.03003,-0.90002 -0.33002,-5.06 -4.51001,-9.16998 -9.31,-9.16998 z"
       id="path1" />
    <path
       class="cls-1"
       d="m 34.65997,11.12 c -5.08997,0 -9.23999,4.14001 -9.23999,9.23999 0,4.71997 3.62,8.66998 8.23004,9.17999 0.10999,2.01001 -0.60004,3.91998 -2.14001,5.69 -0.37,0.41003 -0.32001,1.03998 0.08997,1.41003 0.19,0.15997 0.43005,0.23999 0.66003,0.23999 0.25,0 0.5,-0.09003 0.70001,-0.28003 0.07996,-0.04999 0.28998,-0.12 0.40997,-0.16998 0.20001,-0.07001 0.37,-0.13 0.5,-0.20001 4.02002,-2.03998 7.10999,-5.06 8.70001,-8.5 0.91998,-2 1.42999,-4.33997 1.42999,-6.53998 0,-0.29999 -0.01001,-0.60004 -0.03003,-0.90002 -0.32996,-5.06 -4.5,-9.16998 -9.31,-9.16998 z"
       id="path2" />
  </g>
</svg>
