<?xml version="1.0" encoding="UTF-8" standalone="no"?>
<svg
   width="455pt"
   height="455pt"
   version="1.1"
   viewBox="0 0 455 455"
   id="svg2631"
   sodipodi:docname="dendro-light.svg"
   inkscape:version="1.2 (dc2aedaf03, 2022-05-15)"
   xmlns:inkscape="http://www.inkscape.org/namespaces/inkscape"
   xmlns:sodipodi="http://sodipodi.sourceforge.net/DTD/sodipodi-0.dtd"
   xmlns="http://www.w3.org/2000/svg"
   xmlns:svg="http://www.w3.org/2000/svg">
  <sodipodi:namedview
     id="namedview2633"
     pagecolor="#505050"
     bordercolor="#eeeeee"
     borderopacity="1"
     inkscape:pageshadow="0"
     inkscape:pageopacity="0"
     inkscape:pagecheckerboard="0"
     inkscape:document-units="pt"
     showgrid="false"
     lock-margins="true"
     fit-margin-top="3"
     fit-margin-left="3"
     fit-margin-right="3"
     fit-margin-bottom="3"
     inkscape:zoom="0.93535714"
     inkscape:cx="-59.335624"
     inkscape:cy="450.63001"
     inkscape:window-width="2560"
     inkscape:window-height="1328"
     inkscape:window-x="0"
     inkscape:window-y="88"
     inkscape:window-maximized="1"
     inkscape:current-layer="svg2631"
     inkscape:showpageshadow="0"
     inkscape:deskcolor="#505050" />
  <defs
     id="defs2585">
    <symbol
       id="j"
       overflow="visible">
      <path
         d="m 37.516,-2.25 c -1.9297,1.0117 -3.9453,1.7734 -6.0469,2.2812 -2.0938,0.50781 -4.2812,0.76562 -6.5625,0.76562 -6.793,0 -12.18,-1.8984 -16.156,-5.7031 -3.9688,-3.8008 -5.9531,-8.957 -5.9531,-15.469 0,-6.5195 1.9844,-11.68 5.9531,-15.484 3.9766,-3.8008 9.3633,-5.7031 16.156,-5.7031 2.2812,0 4.4688,0.25781 6.5625,0.76562 2.1016,0.51172 4.1172,1.2656 6.0469,2.2656 v 8.4531 c -1.9492,-1.332 -3.8711,-2.3047 -5.7656,-2.9219 -1.8984,-0.625 -3.8906,-0.9375 -5.9844,-0.9375 -3.7617,0 -6.7188,1.2031 -8.875,3.6094 -2.1484,2.4062 -3.2188,5.7266 -3.2188,9.9531 0,4.2109 1.0703,7.5156 3.2188,9.9219 2.1562,2.4062 5.1133,3.6094 8.875,3.6094 2.0938,0 4.0859,-0.30469 5.9844,-0.92188 1.8945,-0.625 3.8164,-1.5977 5.7656,-2.9219 z"
         id="path2555" />
    </symbol>
    <symbol
       id="c"
       overflow="visible">
      <path
         d="m 27.453,-22.281 c -0.85547,-0.40625 -1.7109,-0.70312 -2.5625,-0.89062 -0.84375,-0.19531 -1.6953,-0.29688 -2.5469,-0.29688 -2.5234,0 -4.4609,0.80859 -5.8125,2.4219 -1.3555,1.6172 -2.0312,3.9297 -2.0312,6.9375 V -1e-4 H 4.703 v -30.625 h 9.7969 v 5.0312 c 1.25,-2.0078 2.6914,-3.4727 4.3281,-4.3906 1.6328,-0.91406 3.5859,-1.375 5.8594,-1.375 0.33203,0 0.6875,0.01563 1.0625,0.04687 0.38281,0.02344 0.94141,0.07813 1.6719,0.17188 z"
         id="path2558" />
    </symbol>
    <symbol
       id="b"
       overflow="visible">
      <path
         d="m 35.281,-15.391 v 2.7812 H 12.39 c 0.23828,2.3047 1.0664,4.0273 2.4844,5.1719 1.4258,1.1484 3.4141,1.7188 5.9688,1.7188 2.0508,0 4.1562,-0.30078 6.3125,-0.90625 2.1641,-0.61328 4.3906,-1.5391 6.6719,-2.7812 v 7.5469 c -2.3125,0.875 -4.6328,1.5391 -6.9531,1.9844 -2.3125,0.44531 -4.625,0.67188 -6.9375,0.67188 -5.543,0 -9.8516,-1.4062 -12.922,-4.2188 -3.0742,-2.8203 -4.6094,-6.7734 -4.6094,-11.859 0,-5 1.5039,-8.9258 4.5156,-11.781 3.0195,-2.8633 7.1758,-4.2969 12.469,-4.2969 4.8125,0 8.6602,1.4492 11.547,4.3438 2.8945,2.8984 4.3438,6.7734 4.3438,11.625 z m -10.062,-3.2656 c 0,-1.8516 -0.54688,-3.3477 -1.6406,-4.4844 -1.0859,-1.1445 -2.5,-1.7188 -4.25,-1.7188 -1.8984,0 -3.4375,0.53906 -4.625,1.6094 -1.1797,1.0625 -1.9141,2.5938 -2.2031,4.5938 z"
         id="path2561" />
    </symbol>
    <symbol
       id="a"
       overflow="visible">
      <path
         d="m 18.438,-13.781 c -2.043,0 -3.5781,0.35156 -4.6094,1.0469 -1.0312,0.6875 -1.5469,1.7031 -1.5469,3.0469 0,1.2422 0.41016,2.2148 1.2344,2.9219 0.83203,0.69922 1.9883,1.0469 3.4688,1.0469 1.8438,0 3.3906,-0.66016 4.6406,-1.9844 1.2578,-1.3203 1.8906,-2.9727 1.8906,-4.9531 v -1.125 z m 14.953,-3.6875 V 5e-4 h -9.875 v -4.5469 c -1.3125,1.8672 -2.793,3.2266 -4.4375,4.0781 -1.6367,0.84375 -3.6328,1.2656 -5.9844,1.2656 -3.168,0 -5.7422,-0.92578 -7.7188,-2.7812 -1.9805,-1.8516 -2.9688,-4.2539 -2.9688,-7.2031 0,-3.5938 1.2344,-6.2266 3.7031,-7.9062 2.4688,-1.6758 6.3477,-2.5156 11.641,-2.5156 h 5.7656 v -0.76562 c 0,-1.5508 -0.60938,-2.6875 -1.8281,-3.4062 -1.21872,-0.7187 -3.125,-1.0781 -5.7188,-1.0781 -2.0938,0 -4.0469,0.21484 -5.8594,0.64062 -1.8047,0.41797 -3.4766,1.043 -5.0156,1.875 v -7.4688 c 2.0938,-0.50781 4.1953,-0.89453 6.3125,-1.1562 2.1133,-0.25781 4.2266,-0.39062 6.3438,-0.39062 5.5195,0 9.5039,1.0898 11.953,3.2656 2.457,2.1797 3.6875,5.7188 3.6875,10.625 z"
         id="path2564" />
    </symbol>
    <symbol
       id="h"
       overflow="visible">
      <path
         d="m 15.391,-39.328 v 8.7031 h 10.094 v 7 H 15.391 v 12.984 c 0,1.4297 0.28125,2.3906 0.84375,2.8906 0.57031,0.5 1.6953,0.75 3.375,0.75 h 5.0312 v 7 h -8.3906 c -3.8672,0 -6.6055,-0.80469 -8.2188,-2.4219 -1.6172,-1.6133 -2.4219,-4.3516 -2.4219,-8.2188 v -12.984 h -4.875 v -7 h 4.875 v -8.7031 z"
         id="path2567" />
    </symbol>
    <symbol
       id="g"
       overflow="visible">
      <path
         d="m 25.547,-26.141 v -16.406 h 9.8438 V 0 H 25.547 v -4.4375 c -1.3555,1.8125 -2.8438,3.1406 -4.4688,3.9844 -1.6172,0.83203 -3.4922,1.25 -5.625,1.25 -3.7734,0 -6.8711,-1.5 -9.2969,-4.5 -2.4297,-3 -3.6406,-6.8594 -3.6406,-11.578 0,-4.7266 1.2109,-8.5859 3.6406,-11.578 2.4258,-3 5.5234,-4.5 9.2969,-4.5 2.1133,0 3.9844,0.42188 5.6094,1.2656 1.6328,0.84375 3.1289,2.1641 4.4844,3.9531 z m -6.4531,19.828 c 2.0938,0 3.6914,-0.76562 4.7969,-2.2969 1.1016,-1.5312 1.6562,-3.7539 1.6562,-6.6719 0,-2.9141 -0.55469,-5.1406 -1.6562,-6.6719 -1.1055,-1.5312 -2.7031,-2.2969 -4.7969,-2.2969 -2.0859,0 -3.6797,0.76562 -4.7812,2.2969 -1.1055,1.5312 -1.6562,3.7578 -1.6562,6.6719 0,2.918 0.55078,5.1406 1.6562,6.6719 1.1016,1.5312 2.6953,2.2969 4.7812,2.2969 z"
         id="path2570" />
    </symbol>
    <symbol
       id="f"
       overflow="visible">
      <path
         d="m 21,-6.3125 c 2.0938,0 3.6914,-0.76562 4.7969,-2.2969 1.1016,-1.5312 1.6562,-3.7539 1.6562,-6.6719 0,-2.9141 -0.55469,-5.1406 -1.6562,-6.6719 -1.1055,-1.5312 -2.7031,-2.2969 -4.7969,-2.2969 -2.0938,0 -3.7031,0.77344 -4.8281,2.3125 -1.1172,1.5312 -1.6719,3.75 -1.6719,6.6562 0,2.8984 0.55469,5.1172 1.6719,6.6562 1.125,1.543 2.7344,2.3125 4.8281,2.3125 z m -6.5,-19.828 c 1.3438,-1.7891 2.832,-3.1094 4.4688,-3.9531 1.6445,-0.84375 3.5352,-1.2656 5.6719,-1.2656 3.7695,0 6.8672,1.5 9.2969,4.5 2.4258,2.9922 3.6406,6.8516 3.6406,11.578 0,4.7188 -1.2148,8.5781 -3.6406,11.578 -2.4297,3 -5.5273,4.5 -9.2969,4.5 -2.1367,0 -4.0273,-0.42188 -5.6719,-1.2656 C 17.3321,-1.32036 15.8438,-2.6446 14.5,-4.4376 V -1e-4 H 4.7031 v -42.547 H 14.5 Z"
         id="path2573" />
    </symbol>
    <symbol
       id="e"
       overflow="visible">
      <path
         d="m 0.6875,-30.625 h 9.7812 l 8.2344,20.781 7,-20.781 H 35.5 L 22.609,2.906 c -1.293,3.4062 -2.8047,5.7852 -4.5312,7.1406 -1.7188,1.3633 -3.9922,2.0469 -6.8125,2.0469 H 5.6091 V 5.656 h 3.0625 c 1.6562,0 2.8594,-0.26562 3.6094,-0.79688 0.75781,-0.52344 1.3516,-1.4648 1.7812,-2.8281 l 0.26562,-0.85938 z"
         id="path2576" />
    </symbol>
    <symbol
       id="d"
       overflow="visible">
      <path
         d="m 5.1406,-40.828 h 10.531 v 32.875 h 18.484 V 1e-4 H 5.1396 Z"
         id="path2579" />
    </symbol>
    <symbol
       id="i"
       overflow="visible">
      <path
         d="m 4.375,-11.922 v -18.703 h 9.8438 v 3.0625 c 0,1.6562 -0.01172,3.7422 -0.03125,6.25 -0.01172,2.5 -0.01563,4.1719 -0.01563,5.0156 0,2.4609 0.0625,4.2305 0.1875,5.3125 0.125,1.0859 0.34375,1.875 0.65625,2.375 0.39453,0.63672 0.91406,1.125 1.5625,1.4688 0.65625,0.34375 1.3984,0.51562 2.2344,0.51562 2.0391,0 3.6445,-0.78125 4.8125,-2.3438 1.1641,-1.5703 1.75,-3.75 1.75,-6.5312 v -15.125 h 9.7969 V 2e-5 h -9.7969 v -4.4375 c -1.4805,1.793 -3.043,3.1172 -4.6875,3.9688 -1.6484,0.84375 -3.4648,1.2656 -5.4531,1.2656 -3.543,0 -6.2422,-1.082 -8.0938,-3.25 -1.8438,-2.1758 -2.7656,-5.332 -2.7656,-9.4688 z"
         id="path2582" />
    </symbol>
  </defs>
  <g
     id="g2629"
     transform="translate(-122.58784,-53.320196)"
     style="fill:#f3f6f9;fill-opacity:1">
    <path
       d="m 572.88,262.08 c -1.1211,-16.801 -7.8398,-33.602 -14.559,-49.281 -14.559,-36.961 -23.52,-57.121 -44.801,-90.719 -4.4805,-6.7188 -8.9609,-13.441 -15.68,-17.922 -6.7188,-5.6016 -14.559,-7.8398 -22.398,-11.199 -22.398,-8.9609 -51.52,-40.32 -90.719,-35.84 -40.32,4.4805 -112,34.719 -166.88,57.121 -12.32,4.4805 -23.52,10.078 -33.602,17.922 -13.441,10.078 -21.281,24.641 -30.238,39.199 -15.68,26.879 -31.359,56 -25.762,86.238 2.2383,11.199 6.7188,21.281 10.078,31.359 19.039,50.398 23.52,108.64 61.602,147.84 21.281,21.281 49.281,32.48 77.281,44.801 35.84,14.559 75.039,30.238 112,20.16 10.078,-2.2383 20.16,-7.8398 30.238,-12.32 17.922,-8.9609 36.961,-17.922 54.879,-26.879 12.32,-5.6016 24.641,-12.32 33.602,-21.281 6.7188,-6.7188 12.32,-15.68 16.801,-23.52 19.039,-32.48 29.121,-64.961 40.32,-99.68 5.5977,-19.039 8.957,-38.078 7.8359,-56 z m -47.039,114.24 c -21.281,30.238 -48.16,53.762 -76.16,78.398 -14.559,13.441 -30.238,26.879 -50.398,33.602 -34.719,12.32 -73.922,-1.1211 -106.4,-16.801 -24.641,-11.199 -49.281,-24.641 -68.32,-42.559 -22.398,-21.281 -36.961,-48.16 -50.398,-76.16 -13.441,-30.238 -24.641,-60.48 -24.641,-92.961 -1.1211,-32.48 7.8398,-66.078 31.359,-89.602 10.078,-10.078 22.398,-19.039 34.719,-26.879 44.801,-30.238 89.602,-48.16 140,-67.199 44.801,-16.801 91.84,6.7188 122.08,39.199 28,30.238 44.801,68.32 60.48,106.4 7.8398,17.922 14.559,35.84 17.922,54.879 3.3594,33.602 -8.9609,69.441 -30.242,99.684 z"
       id="path2587"
       style="fill:#f3f6f9;fill-opacity:1" />
    <path
       d="m 358.96,308 c -3.3594,0 -5.6016,0 -7.8398,-1.1211 -5.6016,-2.2383 -8.9609,-5.6016 -12.32,-11.199 -2.2383,-5.6016 -3.3594,-12.32 0,-17.922 3.3594,-8.9609 13.441,-15.68 24.641,-19.039 h 1.1211 l 7.8398,1.1211 c 5.6016,0 11.199,3.3594 15.68,8.9609 4.4805,5.6016 5.6016,13.441 3.3594,20.16 -4.4805,12.32 -17.922,19.039 -29.121,20.16 -2.2422,-1.1211 -2.2422,-1.1211 -3.3594,-1.1211 z m 5.5977,-40.32 c -8.9609,2.2383 -15.68,7.8398 -17.922,13.441 -1.1211,3.3594 -1.1211,7.8398 0,11.199 1.1211,3.3594 3.3594,5.6016 6.7188,5.6016 2.2383,1.1211 4.4805,1.1211 7.8398,1.1211 7.8398,-1.1211 19.039,-5.6016 21.281,-13.441 1.1211,-3.3594 0,-7.8398 -2.2383,-11.199 -2.2383,-3.3592 -4.4805,-4.4805 -8.9609,-4.4805 z"
       id="path2589"
       style="fill:#f3f6f9;fill-opacity:1" />
    <path
       d="m 355.6,340.48 c -2.2383,0 -4.4805,0 -6.7188,-1.1211 -5.6016,-1.1211 -10.078,-4.4805 -13.441,-6.7188 -12.32,-8.9609 -20.16,-17.922 -25.762,-26.879 -7.8398,-14.559 -5.6016,-31.359 4.4805,-48.16 13.441,-21.281 38.078,-35.84 60.48,-34.719 14.559,1.1211 25.762,6.7188 33.602,17.922 15.68,23.52 11.199,60.48 5.6016,79.52 -1.1211,3.3594 -2.2383,6.7188 -5.6016,8.9609 -3.3594,2.2383 -6.7188,3.3594 -8.9609,3.3594 -12.32,2.2383 -24.641,4.4805 -35.84,5.6016 -1.1211,2.2344 -4.4805,2.2344 -7.8398,2.2344 z m 16.797,-107.52 c -17.922,0 -38.078,12.32 -49.281,30.238 -8.9609,13.441 -10.078,28 -4.4805,39.199 4.4805,7.8398 12.32,15.68 23.52,23.52 3.3594,2.2383 6.7188,4.4805 10.078,5.6016 3.3594,1.1211 7.8398,0 11.199,0 12.32,-1.1211 23.52,-3.3594 35.84,-5.6016 2.2383,0 3.3594,-1.1211 4.4805,-2.2383 1.1211,-1.1211 1.1211,-2.2383 2.2383,-4.4805 6.7188,-22.398 7.8398,-53.762 -4.4805,-71.68 -5.6016,-8.9609 -14.559,-13.441 -26.879,-14.559 h -2.2344 z"
       id="path2591"
       style="fill:#f3f6f9;fill-opacity:1" />
    <path
       d="m 372.4,371.84 c -3.3594,0 -6.7188,-1.1211 -10.078,-1.1211 L 316.4,362.8791 c -4.4805,-1.1211 -10.078,-2.2383 -14.559,-5.6016 -3.3594,-2.2383 -5.6016,-5.6016 -7.8398,-10.078 -10.078,-17.922 -21.281,-41.441 -22.398,-67.199 -1.1211,-26.879 11.199,-51.52 31.359,-64.961 2.2383,-2.2383 5.6016,-3.3594 7.8398,-5.6016 3.3594,-2.2383 5.6016,-4.4805 8.9609,-6.7188 6.7188,-3.3594 14.559,-3.3594 21.281,-3.3594 h 6.7188 c 28,-5.6016 59.359,2.2383 79.52,22.398 6.7188,5.6016 10.078,12.32 12.32,17.922 2.2383,6.7188 2.2383,14.559 2.2383,21.281 0,23.52 -1.1211,48.16 -14.559,68.32 -8.9609,13.441 -21.281,23.52 -33.602,32.48 -4.4805,3.3594 -10.078,7.8398 -15.68,8.9609 -1.1211,1.1172 -3.3594,1.1172 -5.6016,1.1172 z M 335.443,208.32 c -3.3594,0 -7.8398,0 -10.078,2.2383 -2.2383,1.1211 -5.6016,3.3594 -7.8398,5.6016 -3.3594,2.2383 -5.6016,4.4805 -8.9609,6.7188 -16.801,11.199 -28,32.48 -26.879,56 0,19.039 6.7188,38.078 21.281,63.84 1.1211,2.2383 3.3594,5.6016 4.4805,6.7188 2.2383,2.2383 6.7188,3.3594 11.199,3.3594 l 45.922,7.8398 c 4.4805,1.1211 8.9609,1.1211 12.32,1.1211 4.4805,-1.1211 8.9609,-4.4805 12.32,-6.7188 11.199,-8.9609 23.52,-17.922 31.359,-30.238 12.32,-17.922 13.441,-41.441 13.441,-62.719 0,-6.7188 0,-12.32 -2.2383,-17.922 -2.2383,-4.4805 -5.6016,-10.078 -10.078,-14.559 -17.922,-16.801 -45.922,-24.641 -70.559,-19.039 h -8.9609 c -3.3711,-1.1211 -5.6133,-2.2422 -6.7305,-2.2422 z"
       id="path2593"
       style="fill:#f3f6f9;fill-opacity:1" />
    <path
       d="m 337.68,405.44 c -5.6016,0 -10.078,-1.1211 -15.68,-2.2383 -25.762,-6.7188 -42.559,-29.121 -53.762,-48.16 -7.8398,-14.559 -15.68,-29.121 -22.398,-43.68 -6.7188,-15.68 -13.441,-34.719 -10.078,-53.762 5.6016,-31.359 35.84,-51.52 58.238,-63.84 25.762,-14.559 75.039,-36.961 113.12,-28 41.441,10.078 61.602,52.641 62.719,89.602 0,8.9609 1.1211,19.039 3.3594,28 3.3594,21.281 5.6016,40.32 -1.1211,53.762 -6.7188,13.441 -24.641,21.281 -43.68,30.238 -8.9609,4.4805 -17.922,7.8398 -24.641,12.32 -17.918,12.316 -41.438,25.758 -66.078,25.758 z m 52.641,-232.96 c -33.602,0 -73.922,20.16 -90.719,29.121 -21.281,11.199 -49.281,30.238 -53.762,57.121 -3.3594,15.68 3.3594,32.48 10.078,48.16 6.7188,14.559 13.441,29.121 22.398,42.559 10.078,17.922 24.641,38.078 48.16,44.801 25.762,6.7188 52.641,-8.9609 76.16,-23.52 7.8398,-4.4805 16.801,-8.9609 25.762,-13.441 16.801,-7.8398 33.602,-15.68 39.199,-25.762 5.6016,-10.078 2.2383,-29.121 0,-48.16 -1.1211,-10.078 -2.2383,-20.16 -3.3594,-29.121 -1.1211,-32.48 -19.039,-71.68 -56,-80.641 -6.7188,0.004 -12.316,-1.1172 -17.918,-1.1172 z"
       id="path2595"
       style="fill:#f3f6f9;fill-opacity:1" />
    <path
       d="m 341.04,441.28 c -29.121,0 -51.52,-24.641 -67.199,-47.039 -24.641,-32.48 -52.641,-70.559 -62.719,-113.12 -2.2383,-8.9609 -4.4805,-22.398 -1.1211,-35.84 4.4805,-14.559 14.559,-25.762 24.641,-34.719 42.559,-40.32 92.961,-80.641 143.36,-80.641 h 1.1211 c 53.762,1.1211 97.441,39.199 116.48,101.92 13.441,43.68 13.441,76.16 1.1211,103.04 -16.801,34.719 -52.641,56 -82.879,72.801 l -33.602,19.039 c -10.078,5.6016 -20.16,12.32 -32.48,13.441 -2.2422,1.1172 -4.4805,1.1172 -6.7227,1.1172 z M 378.001,140 c -52.641,0 -112,54.879 -136.64,78.398 -8.9609,8.9609 -19.039,19.039 -22.398,31.359 -2.2383,8.9609 -2.2383,17.922 1.1211,31.359 10.078,40.32 36.961,77.281 60.48,109.76 16.801,22.398 38.078,47.039 66.078,43.68 10.078,-1.1211 20.16,-6.7188 29.121,-12.32 l 33.602,-19.039 c 34.719,-20.16 64.961,-39.199 78.398,-68.32 12.32,-24.641 11.199,-56 -1.1211,-96.32 -8.9609,-31.359 -36.961,-98.559 -108.64,-98.559 z"
       id="path2597"
       style="fill:#f3f6f9;fill-opacity:1" />
    <path
       d="m 350,473.76 c -5.6016,0 -11.199,0 -16.801,-1.1211 -44.801,-6.7188 -75.039,-42.559 -103.04,-78.398 -23.52,-30.238 -43.68,-56 -59.359,-86.238 -6.7188,-14.559 -15.68,-34.719 -8.9609,-53.762 3.3594,-8.9609 8.9609,-15.68 14.559,-22.398 10.078,-11.199 16.801,-22.398 24.641,-33.602 11.199,-17.922 22.398,-35.84 41.441,-48.16 14.559,-10.078 34.719,-15.68 54.879,-22.398 16.801,-5.6016 33.602,-10.078 47.039,-17.922 54.883,-31.363 105.28,-10.082 145.6,58.238 13.441,23.52 28,51.52 35.84,81.762 10.078,44.801 2.2383,94.078 -22.398,133.28 -24.641,39.199 -66.078,70.559 -112,84 -14.562,4.4766 -29.121,6.7188 -41.441,6.7188 z m 42.559,-368.48 c -13.441,0 -28,3.3594 -42.559,12.32 -13.441,7.8398 -31.359,13.441 -48.16,17.922 -19.039,5.6016 -39.199,11.199 -52.641,20.16 -17.922,12.32 -28,28 -39.199,45.922 -7.8398,11.199 -14.559,23.52 -25.762,34.719 -5.6016,5.6016 -11.199,12.32 -13.441,19.039 -5.6016,15.68 2.2383,34.719 8.9609,47.039 14.559,29.121 34.719,54.879 58.238,85.121 26.879,33.602 56,68.32 97.441,75.039 15.68,2.2383 33.602,1.1211 52.641,-4.4805 44.801,-12.32 84,-41.441 107.52,-79.52 23.52,-38.078 31.359,-84 21.281,-126.56 -6.7188,-29.121 -21.281,-56 -34.719,-78.398 -19.039,-34.727 -49.281,-68.324 -89.602,-68.324 z"
       id="path2599"
       style="fill:#f3f6f9;fill-opacity:1" />
  </g>
</svg>
