<svg xmlns="http://www.w3.org/2000/svg" width="720" height="720" viewBox="0 0 540 540"><g style="fill:#1d1d1d;fill-opacity:1"><path d="M572.88 262.08c-1.121-16.801-7.84-33.602-14.559-49.281-14.559-36.961-23.52-57.121-44.801-90.719-4.48-6.719-8.96-13.441-15.68-17.922-6.719-5.602-14.559-7.84-22.398-11.199-22.398-8.96-51.52-40.32-90.719-35.84-40.32 4.48-112 34.719-166.88 57.121-12.32 4.48-23.52 10.078-33.602 17.922-13.441 10.078-21.281 24.641-30.238 39.199-15.68 26.879-31.359 56-25.762 86.238 2.238 11.199 6.719 21.281 10.078 31.359 19.039 50.398 23.52 108.64 61.602 147.84 21.281 21.281 49.281 32.48 77.281 44.801 35.84 14.559 75.039 30.238 112 20.16 10.078-2.238 20.16-7.84 30.238-12.32 17.922-8.96 36.961-17.922 54.879-26.879 12.32-5.602 24.641-12.32 33.602-21.281 6.719-6.719 12.32-15.68 16.801-23.52 19.039-32.48 29.121-64.961 40.32-99.68 5.598-19.039 8.957-38.078 7.836-56zm-47.039 114.24c-21.281 30.238-48.16 53.762-76.16 78.398-14.559 13.441-30.238 26.879-50.398 33.602-34.719 12.32-73.922-1.121-106.4-16.801-24.641-11.199-49.281-24.641-68.32-42.559-22.398-21.281-36.961-48.16-50.398-76.16-13.441-30.238-24.641-60.48-24.641-92.961-1.121-32.48 7.84-66.078 31.359-89.602 10.078-10.078 22.398-19.039 34.719-26.879 44.801-30.238 89.602-48.16 140-67.199 44.801-16.801 91.84 6.719 122.08 39.199 28 30.238 44.801 68.32 60.48 106.4 7.84 17.922 14.559 35.84 17.922 54.879 3.36 33.602-8.96 69.441-30.242 99.684z" style="fill:#1d1d1d;fill-opacity:1" transform="translate(-151.724 -68.282) scale(1.20462)"/><path d="M358.96 308c-3.36 0-5.602 0-7.84-1.121-5.601-2.238-8.96-5.602-12.32-11.2-2.238-5.6-3.36-12.32 0-17.921 3.36-8.961 13.441-15.68 24.641-19.04h1.121l7.84 1.122c5.602 0 11.2 3.36 15.68 8.96 4.48 5.602 5.602 13.442 3.36 20.16-4.481 12.32-17.922 19.04-29.121 20.16-2.243-1.12-2.243-1.12-3.36-1.12zm5.598-40.32c-8.961 2.238-15.68 7.84-17.922 13.441-1.121 3.36-1.121 7.84 0 11.199 1.12 3.36 3.36 5.602 6.718 5.602 2.239 1.12 4.481 1.12 7.84 1.12 7.84-1.12 19.04-5.6 21.281-13.44 1.121-3.36 0-7.84-2.238-11.2-2.238-3.358-4.48-4.48-8.96-4.48z" style="fill:#1d1d1d;fill-opacity:1" transform="translate(-151.724 -68.282) scale(1.20462)"/><path d="M355.6 340.48c-2.238 0-4.48 0-6.719-1.121-5.601-1.121-10.078-4.48-13.44-6.719-12.32-8.96-20.16-17.922-25.763-26.879-7.84-14.559-5.601-31.359 4.48-48.16 13.442-21.28 38.079-35.84 60.48-34.719 14.56 1.121 25.763 6.719 33.603 17.922 15.68 23.52 11.199 60.48 5.601 79.52-1.12 3.36-2.238 6.719-5.601 8.961-3.36 2.238-6.72 3.36-8.961 3.36-12.32 2.238-24.641 4.48-35.84 5.601-1.121 2.234-4.48 2.234-7.84 2.234zm16.797-107.52c-17.922 0-38.078 12.32-49.281 30.238-8.96 13.441-10.078 28-4.48 39.199 4.48 7.84 12.32 15.68 23.52 23.52 3.359 2.238 6.718 4.48 10.078 5.602 3.359 1.12 7.84 0 11.199 0 12.32-1.121 23.52-3.36 35.84-5.602 2.238 0 3.359-1.121 4.48-2.238 1.121-1.121 1.121-2.239 2.238-4.48 6.72-22.399 7.84-53.763-4.48-71.68-5.602-8.962-14.56-13.442-26.88-14.56h-2.234z" style="fill:#1d1d1d;fill-opacity:1" transform="translate(-151.724 -68.282) scale(1.20462)"/><path d="M372.4 371.84c-3.36 0-6.719-1.121-10.078-1.121l-45.922-7.84c-4.48-1.121-10.078-2.238-14.559-5.602-3.36-2.238-5.602-5.601-7.84-10.078-10.078-17.922-21.28-41.44-22.398-67.199-1.12-26.879 11.2-51.52 31.36-64.96 2.237-2.239 5.6-3.36 7.839-5.602 3.36-2.238 5.602-4.48 8.96-6.719 6.72-3.36 14.56-3.36 21.282-3.36h6.719c28-5.6 59.359 2.239 79.52 22.399 6.718 5.601 10.078 12.32 12.32 17.922 2.238 6.718 2.238 14.559 2.238 21.28 0 23.52-1.121 48.16-14.559 68.32-8.96 13.442-21.281 23.52-33.602 32.48-4.48 3.36-10.078 7.84-15.68 8.962-1.121 1.117-3.36 1.117-5.602 1.117zm-36.957-163.52c-3.36 0-7.84 0-10.078 2.238-2.238 1.121-5.602 3.36-7.84 5.602-3.36 2.238-5.601 4.48-8.96 6.719-16.802 11.199-28 32.48-26.88 56 0 19.039 6.72 38.078 21.281 63.84 1.121 2.238 3.36 5.601 4.48 6.719 2.24 2.238 6.72 3.359 11.2 3.359l45.922 7.84c4.48 1.12 8.96 1.12 12.32 1.12 4.48-1.12 8.96-4.48 12.32-6.718 11.199-8.96 23.52-17.922 31.359-30.238 12.32-17.922 13.44-41.441 13.44-62.719 0-6.719 0-12.32-2.238-17.922-2.238-4.48-5.601-10.078-10.078-14.559-17.921-16.801-45.921-24.641-70.558-19.039h-8.961c-3.371-1.121-5.614-2.242-6.73-2.242z" style="fill:#1d1d1d;fill-opacity:1" transform="translate(-151.724 -68.282) scale(1.20462)"/><path d="M337.68 405.44c-5.602 0-10.078-1.121-15.68-2.238-25.762-6.72-42.559-29.121-53.762-48.16-7.84-14.56-15.68-29.121-22.398-43.68-6.719-15.68-13.441-34.72-10.078-53.762 5.602-31.36 35.84-51.52 58.238-63.84 25.762-14.56 75.039-36.961 113.12-28 41.441 10.078 61.602 52.64 62.719 89.602 0 8.96 1.121 19.039 3.36 28 3.359 21.28 5.601 40.32-1.122 53.762-6.719 13.44-24.64 21.28-43.68 30.238-8.96 4.48-17.922 7.84-24.64 12.32-17.919 12.316-41.439 25.758-66.079 25.758zm52.641-232.96c-33.602 0-73.922 20.16-90.719 29.121-21.281 11.199-49.281 30.238-53.762 57.121-3.36 15.68 3.36 32.48 10.078 48.16 6.719 14.559 13.441 29.121 22.398 42.559 10.078 17.922 24.641 38.078 48.16 44.801 25.762 6.719 52.641-8.96 76.16-23.52 7.84-4.48 16.801-8.96 25.762-13.441 16.801-7.84 33.602-15.68 39.199-25.762 5.602-10.078 2.238-29.121 0-48.16-1.121-10.078-2.238-20.16-3.36-29.121-1.12-32.48-19.038-71.68-56-80.641-6.718.004-12.315-1.117-17.917-1.117z" style="fill:#1d1d1d;fill-opacity:1" transform="translate(-151.724 -68.282) scale(1.20462)"/><path d="M341.04 441.28c-29.121 0-51.52-24.641-67.199-47.039-24.641-32.48-52.641-70.559-62.719-113.12-2.238-8.96-4.48-22.398-1.121-35.84 4.48-14.559 14.559-25.762 24.64-34.719 42.56-40.32 92.962-80.641 143.36-80.641h1.122c53.762 1.121 97.441 39.199 116.48 101.92 13.441 43.68 13.441 76.16 1.121 103.04-16.8 34.719-52.64 56-82.879 72.801l-33.602 19.039c-10.078 5.602-20.16 12.32-32.48 13.441-2.242 1.117-4.48 1.117-6.723 1.117zM378.001 140c-52.641 0-112 54.879-136.64 78.398-8.96 8.96-19.039 19.039-22.398 31.359-2.238 8.96-2.238 17.922 1.121 31.359 10.078 40.32 36.961 77.281 60.48 109.76 16.801 22.398 38.078 47.039 66.078 43.68 10.078-1.121 20.16-6.719 29.121-12.32l33.602-19.039c34.72-20.16 64.961-39.199 78.398-68.32 12.32-24.641 11.2-56-1.121-96.32-8.96-31.359-36.961-98.559-108.64-98.559z" style="fill:#1d1d1d;fill-opacity:1" transform="translate(-151.724 -68.282) scale(1.20462)"/><path d="M350 473.76c-5.602 0-11.199 0-16.801-1.121-44.801-6.719-75.039-42.56-103.04-78.398-23.52-30.238-43.68-56-59.359-86.238-6.719-14.56-15.68-34.72-8.96-53.762 3.358-8.961 8.96-15.68 14.558-22.398 10.078-11.2 16.801-22.398 24.641-33.602 11.2-17.922 22.398-35.84 41.441-48.16 14.56-10.078 34.72-15.68 54.88-22.398 16.8-5.602 33.601-10.078 47.038-17.922 54.883-31.363 105.28-10.082 145.6 58.238 13.441 23.52 28 51.52 35.84 81.762 10.078 44.8 2.238 94.078-22.398 133.28-24.64 39.199-66.078 70.559-112 84-14.562 4.477-29.12 6.719-41.44 6.719zm42.559-368.48c-13.441 0-28 3.36-42.559 12.32-13.441 7.84-31.359 13.441-48.16 17.922-19.039 5.602-39.199 11.199-52.641 20.16-17.922 12.32-28 28-39.199 45.922-7.84 11.199-14.559 23.52-25.762 34.719-5.602 5.602-11.199 12.32-13.441 19.039-5.602 15.68 2.238 34.719 8.96 47.039 14.56 29.121 34.72 54.879 58.239 85.121 26.879 33.602 56 68.32 97.44 75.039 15.68 2.238 33.603 1.121 52.642-4.48 44.8-12.32 84-41.442 107.52-79.52 23.52-38.079 31.359-84 21.28-126.56-6.718-29.122-21.28-56-34.718-78.399-19.04-34.727-49.281-68.324-89.602-68.324z" style="fill:#1d1d1d;fill-opacity:1" transform="translate(-151.724 -68.282) scale(1.20462)"/></g></svg>