<svg xmlns="http://www.w3.org/2000/svg" width="720" height="720" viewBox="0 0 540 540"><path fill-rule="evenodd" d="M54.003 107.998C54.003 48.351 102.358 0 162.005 0h269.996c29.823 0 54.001 24.174 54.001 53.997v432.006c0 29.823-24.178 53.997-54.001 53.997H134.998c-44.735 0-81-36.26-81-81Zm54 350.995c0 14.912 12.087 27.003 27 27.003h297.002v-54.001H135.002c-14.912 0-26.998 12.086-26.998 26.998zm54.002-296.991c0-14.912 12.087-27.003 26.999-27.003h26.998c14.912 0 27.003 12.09 27.003 27.003 0 14.912-12.09 26.998-27.003 26.998h-26.998c-14.912 0-26.999-12.086-26.999-26.998zm26.999 53.997c-14.912 0-26.999 12.09-26.999 27.003 0 14.912 12.087 26.998 26.999 26.998h107.998c14.912 0 27.003-12.086 27.003-26.998s-12.091-27.003-27.003-27.003z" style="stroke-width:1.15714"/></svg>