<?xml version="1.0" encoding="UTF-8" standalone="no"?>
<svg
   width="373.33801pt"
   height="466.668pt"
   version="1.1"
   viewBox="0 0 373.33801 466.668"
   id="svg260"
   sodipodi:docname="reference.svg"
   inkscape:version="1.2.2 (b0a8486541, 2022-12-01)"
   xmlns:inkscape="http://www.inkscape.org/namespaces/inkscape"
   xmlns:sodipodi="http://sodipodi.sourceforge.net/DTD/sodipodi-0.dtd"
   xmlns="http://www.w3.org/2000/svg"
   xmlns:svg="http://www.w3.org/2000/svg">
  <defs
     id="defs264" />
  <sodipodi:namedview
     id="namedview262"
     pagecolor="#505050"
     bordercolor="#eeeeee"
     borderopacity="1"
     inkscape:showpageshadow="0"
     inkscape:pageopacity="0"
     inkscape:pagecheckerboard="0"
     inkscape:deskcolor="#505050"
     inkscape:document-units="pt"
     showgrid="false"
     inkscape:zoom="0.49470342"
     inkscape:cx="431.57171"
     inkscape:cy="567.00639"
     inkscape:window-width="1264"
     inkscape:window-height="1400"
     inkscape:window-x="3840"
     inkscape:window-y="0"
     inkscape:window-maximized="1"
     inkscape:current-layer="svg260" />
  <path
     d="M 0.004,93.332 C 0.004,41.785 41.793,0 93.34,0 h 233.33 c 25.773,0 46.668,20.891 46.668,46.664 v 373.34 c 0,25.773 -20.895,46.664 -46.668,46.664 H 70 c -38.66,0 -70,-31.336 -70,-70 z m 46.668,303.33 c 0,12.887 10.445,23.336 23.332,23.336 h 256.67 V 373.33 H 70.004 c -12.887,0 -23.332,10.445 -23.332,23.332 z M 93.34,140.002 c 0,-12.887 10.445,-23.336 23.332,-23.336 h 23.332 c 12.887,0 23.336,10.449 23.336,23.336 0,12.887 -10.449,23.332 -23.336,23.332 h -23.332 c -12.887,0 -23.332,-10.445 -23.332,-23.332 z m 23.332,46.664 c -12.887,0 -23.332,10.449 -23.332,23.336 0,12.887 10.445,23.332 23.332,23.332 h 93.332 c 12.887,0 23.336,-10.445 23.336,-23.332 0,-12.887 -10.449,-23.336 -23.336,-23.336 z"
     fill-rule="evenodd"
     id="path258" />
</svg>
