<?xml version="1.0" encoding="UTF-8" standalone="no"?>
<svg
   width="322pt"
   height="322pt"
   version="1.1"
   viewBox="0 0 322 322"
   id="svg2845"
   sodipodi:docname="site-light.svg"
   inkscape:version="1.2 (dc2aedaf03, 2022-05-15)"
   xmlns:inkscape="http://www.inkscape.org/namespaces/inkscape"
   xmlns:sodipodi="http://sodipodi.sourceforge.net/DTD/sodipodi-0.dtd"
   xmlns="http://www.w3.org/2000/svg"
   xmlns:svg="http://www.w3.org/2000/svg">
  <sodipodi:namedview
     id="namedview2847"
     pagecolor="#505050"
     bordercolor="#eeeeee"
     borderopacity="1"
     inkscape:pageshadow="0"
     inkscape:pageopacity="0"
     inkscape:pagecheckerboard="0"
     inkscape:document-units="pt"
     showgrid="false"
     fit-margin-top="3"
     fit-margin-left="3"
     fit-margin-right="3"
     fit-margin-bottom="3"
     inkscape:zoom="0.93535714"
     inkscape:cx="33.676976"
     inkscape:cy="338.37343"
     inkscape:window-width="2560"
     inkscape:window-height="1328"
     inkscape:window-x="0"
     inkscape:window-y="88"
     inkscape:window-maximized="1"
     inkscape:current-layer="svg2845"
     lock-margins="true"
     inkscape:showpageshadow="0"
     inkscape:deskcolor="#505050" />
  <defs
     id="defs2755">
    <symbol
       id="u"
       overflow="visible">
      <path
         d="m 27.125,-1.625 c -1.3984,0.73047 -2.8555,1.2773 -4.375,1.6406 -1.5117,0.375 -3.0898,0.5625 -4.7344,0.5625 -4.918,0 -8.8125,-1.375 -11.688,-4.125 -2.8755,-2.75 -4.3125,-6.4766 -4.3125,-11.188 0,-4.707 1.4375,-8.4375 4.3125,-11.188 2.875,-2.7505 6.7695,-4.125 11.688,-4.125 1.6445,0 3.2227,0.1875 4.7344,0.5625 1.5195,0.36719 2.9766,0.90625 4.375,1.625 v 6.1094 c -1.418,-0.95703 -2.8125,-1.6602 -4.1875,-2.1094 -1.3672,-0.44531 -2.8047,-0.67188 -4.3125,-0.67188 -2.7188,0 -4.8555,0.87109 -6.4062,2.6094 -1.5547,1.7422 -2.3281,4.1367 -2.3281,7.1875 0,3.0547 0.77344,5.4492 2.3281,7.1875 1.5508,1.7422 3.6875,2.6094 6.4062,2.6094 1.5078,0 2.9453,-0.22266 4.3125,-0.67188 1.375,-0.44531 2.7695,-1.1562 4.1875,-2.125 z"
         id="path2692" />
    </symbol>
    <symbol
       id="b"
       overflow="visible">
      <path
         d="m 19.844,-16.109 c -0.61719,-0.28906 -1.2305,-0.50391 -1.8438,-0.64062 -0.61719,-0.13281 -1.2305,-0.20312 -1.8438,-0.20312 -1.8242,0 -3.2266,0.58594 -4.2031,1.75 -0.98047,1.1562 -1.4688,2.8242 -1.4688,5 V 2.6e-4 H 3.4064 v -22.141 h 7.0781 v 3.6406 c 0.90625,-1.4453 1.9453,-2.5039 3.125,-3.1719 1.1758,-0.66406 2.5859,-1 4.2344,-1 0.23828,0 0.49219,0.01172 0.76562,0.03125 0.28125,0.02344 0.6875,0.0625 1.2188,0.125 z"
         id="path2695" />
    </symbol>
    <symbol
       id="a"
       overflow="visible">
      <path
         d="m 25.5,-11.125 v 2.0156 H 8.953 c 0.17578,1.6562 0.77344,2.9023 1.7969,3.7344 1.0312,0.83594 2.4688,1.25 4.3125,1.25 1.4883,0 3.0156,-0.21875 4.5781,-0.65625 1.5625,-0.44531 3.1641,-1.1172 4.8125,-2.0156 v 5.4531 c -1.6797,0.63672 -3.3555,1.1172 -5.0312,1.4375 -1.668,0.32031 -3.3398,0.48438 -5.0156,0.48438 -4,0 -7.1172,-1.0156 -9.3438,-3.0469 -2.2188,-2.0391 -3.3281,-4.8984 -3.3281,-8.5781 0,-3.6133 1.0859,-6.4531 3.2656,-8.5156 2.1875,-2.0703 5.1914,-3.1094 9.0156,-3.1094 3.4766,0 6.2578,1.0469 8.3438,3.1406 2.0938,2.0938 3.1406,4.8984 3.1406,8.4062 z m -7.2812,-2.3594 c 0,-1.3438 -0.39062,-2.4258 -1.1719,-3.25 -0.78125,-0.82031 -1.8086,-1.2344 -3.0781,-1.2344 -1.3672,0 -2.4805,0.38672 -3.3438,1.1562 -0.85547,0.77344 -1.3867,1.8828 -1.5938,3.3281 z"
         id="path2698" />
    </symbol>
    <symbol
       id="k"
       overflow="visible">
      <path
         d="m 13.328,-9.9688 c -1.4805,0 -2.5938,0.25781 -3.3438,0.76562 -0.74219,0.5 -1.1094,1.2344 -1.1094,2.2031 0,0.89844 0.29688,1.6016 0.89062,2.1094 0.60156,0.51172 1.4414,0.76562 2.5156,0.76562 1.3203,0 2.4375,-0.47656 3.3438,-1.4375 0.91406,-0.95703 1.375,-2.1562 1.375,-3.5938 v -0.8125 z M 24.14,-12.625 V 0 h -7.1406 v -3.2812 c -0.94922,1.3438 -2.0156,2.3242 -3.2031,2.9375 -1.1875,0.6133 -2.6328,0.92188 -4.3281,0.92188 -2.293,0 -4.1562,-0.66406 -5.5938,-2 -1.4297,-1.3438 -2.1406,-3.082 -2.1406,-5.2188 0,-2.5938 0.89062,-4.4922 2.6719,-5.7031 1.7891,-1.2188 4.5977,-1.8281 8.4219,-1.8281 h 4.1719 v -0.5625 c 0,-1.1133 -0.44531,-1.9297 -1.3281,-2.4531 -0.88672,-0.51953 -2.2617,-0.78125 -4.125,-0.78125 -1.5234,0 -2.9336,0.15234 -4.2344,0.45312 -1.3047,0.30469 -2.5156,0.75781 -3.6406,1.3594 v -5.3906 c 1.5195,-0.36328 3.0391,-0.64062 4.5625,-0.82812 1.5312,-0.19531 3.0625,-0.29688 4.5938,-0.29688 3.9883,0 6.8672,0.78906 8.6406,2.3594 1.7812,1.5742 2.6719,4.1367 2.6719,7.6875 z"
         id="path2701" />
    </symbol>
    <symbol
       id="d"
       overflow="visible">
      <path
         d="m 11.125,-28.422 v 6.2812 h 7.2969 v 5.0625 H 11.125 v 9.3906 c 0,1.0312 0.20312,1.7305 0.60938,2.0938 0.41406,0.35547 1.2266,0.53125 2.4375,0.53125 h 3.6406 v 5.0625 h -6.0781 c -2.793,0 -4.7734,-0.58203 -5.9375,-1.75 -1.168,-1.1641 -1.75,-3.1445 -1.75,-5.9375 v -9.3906 h -3.5156 v -5.0625 h 3.5156 v -6.2812 z"
         id="path2704" />
    </symbol>
    <symbol
       id="j"
       overflow="visible">
      <path
         d="m 18.469,-18.891 v -11.875 h 7.1094 V 0 H 18.469 v -3.2031 c -0.98047,1.3047 -2.0586,2.2617 -3.2344,2.875 -1.168,0.60156 -2.5234,0.90625 -4.0625,0.90625 -2.7305,0 -4.9766,-1.082 -6.7344,-3.25 -1.75,-2.1758 -2.625,-4.9688 -2.625,-8.375 0,-3.4141 0.875,-6.207 2.625,-8.375 1.7578,-2.1641 4.0039,-3.25 6.7344,-3.25 1.5312,0 2.8828,0.30859 4.0625,0.92188 1.1758,0.61719 2.2539,1.5703 3.2344,2.8594 z m -4.6719,14.328 c 1.5195,0 2.6758,-0.55078 3.4688,-1.6562 0.80078,-1.1133 1.2031,-2.7227 1.2031,-4.8281 0,-2.1133 -0.40234,-3.7227 -1.2031,-4.8281 -0.79297,-1.1016 -1.9492,-1.6562 -3.4688,-1.6562 -1.5,0 -2.6523,0.55469 -3.4531,1.6562 -0.79297,1.1055 -1.1875,2.7148 -1.1875,4.8281 0,2.1055 0.39453,3.7148 1.1875,4.8281 0.80078,1.1055 1.9531,1.6562 3.4531,1.6562 z"
         id="path2707" />
    </symbol>
    <symbol
       id="i"
       overflow="visible">
      <path
         d="m 15.188,-4.5625 c 1.5078,0 2.6602,-0.55078 3.4531,-1.6562 0.80078,-1.1133 1.2031,-2.7227 1.2031,-4.8281 0,-2.1133 -0.40234,-3.7227 -1.2031,-4.8281 -0.79297,-1.1016 -1.9453,-1.6562 -3.4531,-1.6562 -1.5234,0 -2.6875,0.55859 -3.5,1.6719 -0.80469,1.1172 -1.2031,2.7188 -1.2031,4.8125 0,2.0937 0.39844,3.6992 1.2031,4.8125 0.8125,1.1172 1.9766,1.6719 3.5,1.6719 z m -4.7031,-14.328 c 0.96875,-1.2891 2.0469,-2.2422 3.2344,-2.8594 1.1875,-0.61328 2.5508,-0.92188 4.0938,-0.92188 2.7266,0 4.9688,1.0859 6.7188,3.25 1.75,2.168 2.625,4.9609 2.625,8.375 0,3.4062 -0.875,6.1992 -2.625,8.375 -1.75,2.168 -3.9922,3.25 -6.7188,3.25 -1.543,0 -2.9062,-0.30859 -4.0938,-0.92188 -1.1876,-0.61329 -2.2656,-1.5664 -3.2344,-2.8594 V 4e-5 H 3.4068 v -30.766 h 7.0781 z"
         id="path2710" />
    </symbol>
    <symbol
       id="h"
       overflow="visible">
      <path
         d="m 0.5,-22.141 h 7.0781 l 5.9375,15.031 5.0625,-15.031 h 7.0781 L 16.3437,2.093 C 15.4062,4.5618 14.3125,6.2844 13.0625,7.2649 11.8203,8.24146 10.1797,8.7337 8.1406,8.7337 H 4.0468 V 4.0931 h 2.2188 c 1.1953,0 2.0664,-0.19531 2.6094,-0.57812 0.55078,-0.375 0.97656,-1.0586 1.2812,-2.0469 l 0.20312,-0.625 z"
         id="path2713" />
    </symbol>
    <symbol
       id="g"
       overflow="visible">
      <path
         d="m 3.7188,-29.516 h 7.6094 V -2.86 c 0,3.6758 -1,6.4219 -3,8.2344 C 6.336,7.1947 3.3165,8.1088 -0.7343,8.1088 h -1.5312 v -5.75 h 1.1719 c 1.582,0 2.7812,-0.44531 3.5938,-1.3281 C 3.3127,0.14398 3.719,-1.149 3.719,-2.8599 Z"
         id="path2716" />
    </symbol>
    <symbol
       id="c"
       overflow="visible">
      <path
         d="m 13.938,-17.609 c -1.5742,0 -2.7734,0.5625 -3.5938,1.6875 -0.82422,1.125 -1.2344,2.75 -1.2344,4.875 0,2.1172 0.41016,3.7422 1.2344,4.875 0.82031,1.125 2.0195,1.6875 3.5938,1.6875 1.5391,0 2.7188,-0.5625 3.5312,-1.6875 0.82031,-1.1328 1.2344,-2.7578 1.2344,-4.875 0,-2.125 -0.41406,-3.75 -1.2344,-4.875 -0.8125,-1.125 -1.9922,-1.6875 -3.5312,-1.6875 z m 0,-5.0625 c 3.8125,0 6.7852,1.0312 8.9219,3.0938 2.1445,2.0547 3.2188,4.8984 3.2188,8.5312 0,3.6367 -1.0742,6.4844 -3.2188,8.5469 -2.1367,2.0547 -5.1094,3.0781 -8.9219,3.0781 -3.8242,0 -6.8125,-1.0234 -8.9688,-3.0781 -2.1562,-2.0625 -3.2344,-4.9102 -3.2344,-8.5469 0,-3.6328 1.0781,-6.4766 3.2344,-8.5312 2.1562,-2.0625 5.1445,-3.0938 8.9688,-3.0938 z"
         id="path2719" />
    </symbol>
    <symbol
       id="t"
       overflow="visible">
      <path
         d="m 13.328,-9.9688 c -1.4805,0 -2.5938,0.25781 -3.3438,0.76562 -0.74219,0.5 -1.1094,1.2344 -1.1094,2.2031 0,0.89844 0.29688,1.6016 0.89062,2.1094 0.60156,0.51172 1.4414,0.76562 2.5156,0.76562 1.3203,0 2.4375,-0.47656 3.3438,-1.4375 0.91406,-0.95703 1.375,-2.1562 1.375,-3.5938 v -0.8125 z M 24.14,-12.625 V 0 h -7.1406 v -3.2812 c -0.94922,1.3438 -2.0156,2.3242 -3.2031,2.9375 -1.1875,0.6133 -2.6328,0.92188 -4.3281,0.92188 -2.293,0 -4.1562,-0.66406 -5.5938,-2 -1.4297,-1.3438 -2.1406,-3.082 -2.1406,-5.2188 0,-2.5938 0.89062,-4.4922 2.6719,-5.7031 1.7891,-1.2188 4.5977,-1.8281 8.4219,-1.8281 h 4.1719 v -0.5625 c 0,-1.1133 -0.44531,-1.9297 -1.3281,-2.4531 -0.88672,-0.51953 -2.2617,-0.78125 -4.125,-0.78125 -1.5234,0 -2.9336,0.15234 -4.2344,0.45312 -1.3047,0.30469 -2.5156,0.75781 -3.6406,1.3594 v -5.3906 c 1.5195,-0.36328 3.0391,-0.64062 4.5625,-0.82812 1.5312,-0.19531 3.0625,-0.29688 4.5938,-0.29688 3.9883,0 6.8672,0.78906 8.6406,2.3594 1.7812,1.5742 2.6719,4.1367 2.6719,7.6875 z m -9.9844,-14.344 -1.0781,-0.71875 c -0.05469,-0.03125 -0.12109,-0.07031 -0.20312,-0.125 -0.61719,-0.40625 -1.0898,-0.60938 -1.4219,-0.60938 -0.48047,0 -0.84375,0.20312 -1.0938,0.60938 -0.25005,0.40626 -0.375,1 -0.375,1.7812 v 0.15625 h -2.75 c 0,-1.7891 0.33594,-3.1719 1.0156,-4.1406 0.6875,-0.97656 1.6406,-1.4688 2.8594,-1.4688 0.47656,0 0.95703,0.08984 1.4375,0.26562 0.47656,0.17969 0.98828,0.46484 1.5312,0.85938 l 1.2031,0.84375 c 0.28906,0.19922 0.55469,0.35156 0.79688,0.45312 0.25,0.10547 0.47266,0.15625 0.67188,0.15625 0.47656,0 0.84766,-0.20703 1.1094,-0.625 0.25781,-0.42578 0.39062,-1.0156 0.39062,-1.7656 v -0.15625 h 2.75 c 0,1.793 -0.33984,3.1797 -1.0156,4.1562 -0.67969,0.96875 -1.6328,1.4531 -2.8594,1.4531 -0.46875,0 -0.92969,-0.07813 -1.375,-0.23438 -0.4375,-0.15625 -0.96875,-0.45312 -1.5938,-0.89062 z"
         id="path2722" />
    </symbol>
    <symbol
       id="s"
       overflow="visible">
      <path
         d="M 21.625,-5.375 H 9.719 L 7.844,0 H 0.2034 l 10.922,-29.516 h 9.0781 L 31.1415,0 h -7.6562 z m -10,-5.4844 h 8.0781 l -4.0312,-11.734 z"
         id="path2725" />
    </symbol>
    <symbol
       id="f"
       overflow="visible">
      <path
         d="m 21.297,-21.453 v 5.7812 c -0.96875,-0.66406 -1.9375,-1.1562 -2.9062,-1.4688 -0.9687,-0.3126 -1.9766,-0.46875 -3.0156,-0.46875 -1.9688,0 -3.5078,0.57812 -4.6094,1.7344 -1.1055,1.1484 -1.6562,2.7578 -1.6562,4.8281 0,2.0625 0.55078,3.6719 1.6562,4.8281 1.1016,1.1562 2.6406,1.7344 4.6094,1.7344 1.1133,0 2.1641,-0.16016 3.1562,-0.48438 1,-0.33203 1.9219,-0.82031 2.7656,-1.4688 v 5.7812 c -1.1172,0.40625 -2.2461,0.71094 -3.3906,0.92188 -1.1367,0.20703 -2.2773,0.3125 -3.4219,0.3125 -3.9922,0 -7.1172,-1.0234 -9.375,-3.0781 -2.25,-2.0508 -3.375,-4.8984 -3.375,-8.5469 0,-3.6562 1.125,-6.5039 3.375,-8.5469 2.2578,-2.0508 5.3828,-3.0781 9.375,-3.0781 1.1641,0 2.3125,0.10547 3.4375,0.3125 1.125,0.19922 2.25,0.5 3.375,0.90625 z"
         id="path2728" />
    </symbol>
    <symbol
       id="e"
       overflow="visible">
      <path
         d="M 25.656,-13.484 V 0 h -7.1094 v -10.281 c 0,-1.9375 -0.04687,-3.2656 -0.14062,-3.9844 -0.08594,-0.72656 -0.23047,-1.2656 -0.4375,-1.6094 -0.28125,-0.45703 -0.66406,-0.81641 -1.1406,-1.0781 -0.46875,-0.25781 -1.0078,-0.39062 -1.6094,-0.39062 -1.4805,0 -2.6406,0.57422 -3.4844,1.7188 -0.83594,1.1367 -1.25,2.7148 -1.25,4.7344 v 10.891 h -7.0781 v -30.766 h 7.0781 v 11.875 c 1.0625,-1.2891 2.1914,-2.2422 3.3906,-2.8594 1.1953,-0.61328 2.5195,-0.92188 3.9688,-0.92188 2.5625,0 4.5039,0.78906 5.8281,2.3594 1.3203,1.5625 1.9844,3.8398 1.9844,6.8281 z"
         id="path2731" />
    </symbol>
    <symbol
       id="r"
       overflow="visible">
      <path
         d="m 17.969,-30.766 v 4.6562 h -3.9062 c -1.0117,0 -1.7148,0.18359 -2.1094,0.54688 -0.39844,0.35547 -0.59375,0.98047 -0.59375,1.875 v 1.5469 h 6.0625 v 5.0625 h -6.0625 v 17.078 h -7.0625 v -17.078 h -3.5312 v -5.0625 h 3.5312 v -1.5469 c 0,-2.4062 0.67188,-4.1875 2.0156,-5.3438 1.34372,-1.1563 3.4219,-1.7344 6.2344,-1.7344 z"
         id="path2734" />
    </symbol>
    <symbol
       id="q"
       overflow="visible">
      <path
         d="m 23.922,-18.469 c 0.89453,-1.3633 1.957,-2.4062 3.1875,-3.125 1.2266,-0.71875 2.582,-1.0781 4.0625,-1.0781 2.5391,0 4.4766,0.78906 5.8125,2.3594 1.332,1.5625 2,3.8398 2,6.8281 V -6e-4 h -7.125 v -11.547 c 0.01953,-0.16406 0.03125,-0.34375 0.03125,-0.53125 0.0078,-0.1875 0.01563,-0.45312 0.01563,-0.79688 0,-1.5625 -0.23438,-2.6953 -0.70312,-3.4062 -0.46094,-0.70703 -1.1992,-1.0625 -2.2188,-1.0625 -1.3438,0 -2.3867,0.55859 -3.125,1.6719 -0.73047,1.1055 -1.1055,2.7031 -1.125,4.7969 v 10.875 h -7.125 v -11.547 c 0,-2.4453 -0.21484,-4.0234 -0.64062,-4.7344 -0.41797,-0.70703 -1.1641,-1.0625 -2.2344,-1.0625 -1.3672,0 -2.418,0.55859 -3.1562,1.6719 -0.73047,1.1172 -1.0938,2.7109 -1.0938,4.7812 v 10.891 h -7.125 v -22.141 h 7.125 v 3.25 c 0.86328,-1.2578 1.8594,-2.2031 2.9844,-2.8281 1.125,-0.63281 2.3672,-0.95312 3.7344,-0.95312 1.5195,0 2.8672,0.37109 4.0469,1.1094 1.1758,0.74219 2.0664,1.7734 2.6719,3.0938 z"
         id="path2737" />
    </symbol>
    <symbol
       id="p"
       overflow="visible">
      <path
         d="m 3.7188,-29.516 h 8.5 l 10.734,20.25 v -20.25 h 7.2188 V 0 h -8.5 L 10.9376,-20.25 V 0 H 3.7188 Z"
         id="path2740" />
    </symbol>
    <symbol
       id="o"
       overflow="visible">
      <path
         d="m 3.1562,-8.625 v -13.516 h 7.125 v 2.2188 c 0,1.1992 -0.01172,2.7031 -0.03125,4.5156 -0.01172,1.8125 -0.01563,3.0234 -0.01563,3.625 0,1.7812 0.04687,3.0625 0.14062,3.8438 0.09375,0.7813 0.25391,1.3516 0.48438,1.7031 0.28125,0.46875 0.65625,0.82812 1.125,1.0781 0.46875,0.24998 1.0039,0.375 1.6094,0.375 1.4766,0 2.6406,-0.56641 3.4844,-1.7031 0.84375,-1.1328 1.2656,-2.707 1.2656,-4.7188 v -10.938 h 7.0781 V -5e-4 h -7.0781 v -3.2031 c -1.0625,1.293 -2.1953,2.2461 -3.3906,2.8594 -1.1875,0.61328 -2.5,0.92188 -3.9375,0.92188 -2.5625,0 -4.5156,-0.78125 -5.8594,-2.3438 -1.3359,-1.5703 -2,-3.8594 -2,-6.8594 z"
         id="path2743" />
    </symbol>
    <symbol
       id="n"
       overflow="visible">
      <path
         d="M 25.656,-13.484 V 0 h -7.1094 v -10.312 c 0,-1.9141 -0.04687,-3.2344 -0.14062,-3.9531 -0.08594,-0.72656 -0.23047,-1.2656 -0.4375,-1.6094 -0.28125,-0.45703 -0.66406,-0.81641 -1.1406,-1.0781 -0.46875,-0.25781 -1.0078,-0.39062 -1.6094,-0.39062 -1.4805,0 -2.6406,0.57422 -3.4844,1.7188 -0.83594,1.1367 -1.25,2.7148 -1.25,4.7344 v 10.891 h -7.0781 v -22.141 h 7.0781 v 3.25 c 1.0625,-1.2891 2.1914,-2.2422 3.3906,-2.8594 1.1953,-0.61328 2.5195,-0.92188 3.9688,-0.92188 2.5625,0 4.5039,0.78906 5.8281,2.3594 1.3203,1.5625 1.9844,3.8398 1.9844,6.8281 z"
         id="path2746" />
    </symbol>
    <symbol
       id="m"
       overflow="visible">
      <path
         d="m 3.7188,-29.516 h 12.625 c 3.7578,0 6.6445,0.83594 8.6562,2.5 2.0078,1.668 3.0156,4.043 3.0156,7.125 0,3.1055 -1.0078,5.4922 -3.0156,7.1562 -2.0117,1.668 -4.8984,2.5 -8.6562,2.5 H 11.3282 V -8e-4 H 3.7188 Z m 7.6094,5.5156 v 8.25 h 4.2031 c 1.4766,0 2.6172,-0.35938 3.4219,-1.0781 0.80078,-0.71875 1.2031,-1.7383 1.2031,-3.0625 0,-1.3125 -0.40234,-2.3203 -1.2031,-3.0312 -0.80469,-0.71875 -1.9453,-1.0781 -3.4219,-1.0781 z"
         id="path2749" />
    </symbol>
    <symbol
       id="l"
       overflow="visible">
      <path
         d="m 3.4062,-22.141 h 7.0781 v 21.75 c 0,2.957 -0.71484,5.2188 -2.1406,6.7812 C 6.914,7.9527 4.8515,8.734 2.1562,8.734 h -3.5 V 4.0934 h 1.2188 c 1.3438,0 2.2656,-0.30859 2.7656,-0.92188 0.50781,-0.60547 0.76562,-1.793 0.76562,-3.5625 z m 0,-8.625 h 7.0781 v 5.7812 H 3.4062 Z"
         id="path2752" />
    </symbol>
  </defs>
  <g
     id="g2843"
     transform="translate(-190.44002,-87.409422)"
     style="fill:#f3f6f9;fill-opacity:1">
    <path
       d="M 351.24,206.18 H 214.95 c -7.5703,0 -10.055,-2.4609 -10.062,-9.9414 0,-3.0508 0.12109,-6.1211 -0.0312,-9.1719 -0.21875,-4.4453 1.7148,-7.3125 5.6016,-9.4492 33.383,-18.305 66.707,-36.711 100.05,-55.082 11.277,-6.2109 22.598,-12.34 33.793,-18.688 4.9531,-2.8008 9.4727,-2.5742 14.551,-0.0469 5.3438,2.6562 8.9805,6.4062 11.699,11.668 4.6055,8.9141 9.8359,17.496 14.621,26.32 1.3828,2.543 3.1406,3.5391 5.9609,3.6094 13.102,0.33984 26.191,0.75391 39.285,1.3672 1.6836,0.082 3.7734,1.1484 4.8594,2.4453 5.6016,6.6953 10.832,13.707 16.453,20.395 1.5078,1.7891 3.7578,3.3906 5.9766,4.082 12.371,3.8477 24.832,7.4336 37.309,10.973 2.4375,0.6875 3.4336,1.8555 3.2891,4.3789 -0.16016,2.7188 -0.0156,5.457 -0.0312,8.1836 -0.0234,6.0742 -2.9453,8.9453 -9.1016,8.9453 -45.969,0.0117 -91.949,0.0117 -137.93,0.0117 z"
       fill-rule="evenodd"
       id="path2757"
       style="fill:#f3f6f9;fill-opacity:1" />
    <path
       d="m 351.23,394.97 c -48.926,-0.008 -97.855,-0.0234 -146.78,0.0234 -3.8359,0 -7.5469,-0.47656 -9.0664,-4.3711 -1.6914,-4.3477 -1.9766,-9.0195 0.6875,-13.207 1.75,-2.7461 4.7188,-3.1914 7.8125,-3.1836 26.977,0.0312 53.953,0.0234 80.934,0.0234 38.449,0 76.891,-0.0312 115.34,0.0664 2.293,0.008 4.7461,0.64844 6.8477,1.5859 4.9727,2.2266 9.8203,4.7461 14.648,7.2852 2.4141,1.2695 4.4922,1.1641 6.0547,-1.0508 4.8398,-6.875 11.359,-8.3633 19.535,-8.0703 17.344,0.61719 34.727,0.17969 52.094,0.1875 6.5273,0.008 9.3984,2.8672 9.4492,9.3516 0.008,0.76953 0,1.5312 -0.008,2.293 -0.0742,6.0391 -3.0352,9.0352 -9.1094,9.043 -27.188,0.0234 -54.391,0.008 -81.578,0.008 -22.293,0.0156 -44.574,0.0156 -66.855,0.0156 z"
       fill-rule="evenodd"
       id="path2759"
       style="fill:#f3f6f9;fill-opacity:1" />
    <path
       d="m 351.24,363.5 c -42.047,0 -84.09,-0.0156 -126.14,0.0234 -3.8867,0.008 -7.5859,-0.69531 -8.8828,-4.6406 -1.457,-4.4609 -2.2031,-9.4062 1.2891,-13.336 1.3438,-1.5078 3.9492,-2.5742 6.0078,-2.625 10.59,-0.25781 21.188,-0.17188 31.777,-0.0469 1.5312,0.0234 3.1641,0.75391 4.5664,1.4961 4.9219,2.5898 9.7383,5.375 14.637,8.0156 2.8008,1.5234 3.6914,0.94922 3.8047,-2.2422 0.25,-7.3125 0.25,-7.3281 7.7148,-7.3281 63.996,-0.008 128,0.008 191.99,-0.0312 3.8789,-0.008 7.5625,0.66406 8.9062,4.6055 1.5234,4.4609 2.25,9.4961 -1.2891,13.301 -1.5859,1.7148 -4.7852,2.6875 -7.2617,2.7031 -27.188,0.1875 -54.383,0.12109 -81.57,0.11328 -15.191,-0.008 -30.375,-0.008 -45.555,-0.008 z"
       fill-rule="evenodd"
       id="path2761"
       style="fill:#f3f6f9;fill-opacity:1" />
    <path
       d="m 466.99,311.04 c 8.25,2.25 10.332,5.043 10.316,13.617 -0.0156,7.3672 -0.0156,7.375 -7.3984,7.3828 -16.816,0 -33.641,-0.008 -50.457,-0.0156 -4.1289,0 -4.7695,-0.64063 -4.8008,-4.6953 -0.008,-0.98047 0,-1.9609 0,-2.9375 -0.0234,-8.2422 2.1797,-11.141 10.492,-13.398 0,-2.24221 0.0156,-4.60551 -0.008,-6.9727 -0.0156,-2.1875 1.0273,-3.207 3.207,-3.1719 1.6367,0.0312 3.2773,-0.0664 4.9062,0.0156 2.7539,0.13672 3.1719,-1.1016 2.3008,-3.4414 -2.9727,-7.957 -6,-15.91 -8.7344,-23.957 -0.96484,-2.832 -1.5312,-5.9102 -1.6016,-8.8984 -0.20313,-8.832 -0.0742,-17.668 -0.0742,-25.18 -3.5469,-2.7031 -6.8984,-4.3477 -8.8984,-7.0039 -2.9141,-3.8867 -1.5703,-8.8594 -1.3125,-13.367 0.0469,-0.74609 2.0977,-1.9688 3.2227,-1.9766 18.566,-0.12109 37.137,-0.0898 55.703,-0.082 2.2656,0 3.4336,1.1484 3.4336,3.4258 0.008,2.4062 0.10547,4.8086 -0.0391,7.207 -0.31641,5.4883 -3.1836,8.3555 -10.266,10.34 0.008,24.262 0.008,48.574 0.008,73.109 z"
       fill-rule="evenodd"
       id="path2763"
       style="fill:#f3f6f9;fill-opacity:1" />
    <path
       d="m 372.41,237.99 c 0,5.9609 0.16016,11.746 -0.0977,17.512 -0.0742,1.7578 -1.1094,3.5547 -2.0234,5.1641 -0.625,1.1016 -1.6836,2.0469 -2.7461,2.7852 -4.9141,3.4336 -6.5742,8.168 -5.5703,13.895 0.25781,1.4961 0.73828,3.4727 1.8203,4.2266 7.7383,5.457 9.9492,12.891 8.6641,21.895 -0.34766,2.4531 -0.0586,4.9883 -0.0586,7.3984 9.3516,3.0859 12.523,8.832 10.453,18.539 -0.50391,2.3398 -2.2031,2.6562 -4.2266,2.6484 -8.7344,-0.0312 -17.473,-0.008 -26.207,-0.008 -9.2773,0 -18.566,-0.0586 -27.852,0.0312 -3.0273,0.0234 -4.5352,-1.1328 -4.3242,-4.2422 0.0664,-0.98047 0,-1.9688 0,-2.9453 -0.008,-8.8242 1.8867,-11.398 10.355,-13.895 v -72.91 c -9.1094,-3.0586 -12.703,-9.6836 -10.273,-18.793 0.63281,-2.3555 2.4844,-2.3633 4.4297,-2.3633 13.109,0.0234 26.215,0.008 39.316,0.008 4.9141,0 9.8359,0.0742 14.742,-0.0156 2.9375,-0.0586 4.2422,1.2305 4.0977,4.1289 -0.0586,1.0938 -0.008,2.1875 -0.0156,3.2773 -0.0156,8.6094 -2.0156,11.266 -10.484,13.664 z"
       fill-rule="evenodd"
       id="path2765"
       style="fill:#f3f6f9;fill-opacity:1" />
    <path
       d="m 278.02,310.96 c 9.1016,2.5586 13.172,9.9492 10.258,18.777 -0.36328,1.0938 -2.6484,2.1875 -4.0469,2.2031 -13.102,0.17188 -26.199,0.0977 -39.301,0.0977 -4.6953,0 -9.3906,0.008 -14.078,-0.008 -4.4609,-0.0156 -4.9883,-0.56641 -4.9961,-5.1641 0,-0.76953 0.008,-1.5234 0.008,-2.293 0.0234,-8.5508 2.0469,-11.23 10.484,-13.594 0,-5.3594 -0.008,-10.801 0,-16.25 0.008,-3.9766 0.37891,-4.3398 4.2734,-4.3711 0.98828,-0.008 1.9688,0.0234 2.9453,-0.008 0.53516,-0.0234 1.1992,0.0469 1.5938,-0.22656 3.0859,-2.1875 1.4102,-5.4102 1.4414,-8.1445 0.008,-0.77734 -2,-2.1875 -3.1719,-2.2812 -7.0859,-0.59766 -7.0938,-0.50391 -7.0938,-7.5547 v -34.207 c -5.207,-0.98047 -9.3125,-3.3125 -10.195,-8.8008 -0.49219,-3.0859 -0.36328,-6.3164 -0.20312,-9.4648 0.12109,-2.3867 2.0234,-2.7539 4.0547,-2.7461 8.4141,0.0312 16.816,0.0156 25.219,0.0156 9.6094,0 19.215,-0.0156 28.824,0 3.6602,0 4.4141,0.77734 4.4531,4.3867 0.0234,2.0742 0.0898,4.1523 -0.0234,6.2188 -0.29297,4.8672 -3.1562,8.4531 -7.9102,9.6094 -1.9766,0.47656 -3.1562,1.3828 -4.0977,3.207 -2.64839,5.1328 -5.5625,10.129 -8.30079,15.215 -1.40231,2.5977 -0.98828,3.3281 1.9766,3.2891 9.1797,-0.13672 7.8281,-0.0742 7.8633,8.332 0.0469,13.426 0.008,26.855 0.008,40.281 0.0156,1.1875 0.0156,2.3711 0.0156,3.4805 z"
       fill-rule="evenodd"
       id="path2767"
       style="fill:#f3f6f9;fill-opacity:1" />
  </g>
</svg>
