<svg xmlns="http://www.w3.org/2000/svg" width="720" height="720" viewBox="0 0 540 540"><g fill-rule="evenodd" style="fill:#f3f6f9;fill-opacity:1"><path d="M351.24 206.18H214.95c-7.57 0-10.055-2.46-10.062-9.941 0-3.051.121-6.121-.031-9.172-.219-4.446 1.715-7.313 5.601-9.45 33.383-18.304 66.707-36.71 100.05-55.081 11.277-6.211 22.598-12.34 33.793-18.688 4.953-2.801 9.473-2.575 14.551-.047 5.344 2.656 8.98 6.406 11.7 11.668 4.605 8.914 9.835 17.496 14.62 26.32 1.383 2.543 3.141 3.539 5.961 3.609 13.102.34 26.191.754 39.285 1.367 1.684.082 3.774 1.149 4.86 2.446 5.601 6.695 10.832 13.707 16.453 20.395 1.507 1.789 3.757 3.39 5.976 4.082 12.371 3.847 24.832 7.433 37.31 10.973 2.437.687 3.433 1.855 3.288 4.378-.16 2.72-.015 5.457-.03 8.184-.024 6.074-2.946 8.945-9.102 8.945-45.97.012-91.95.012-137.93.012zM351.23 394.97c-48.926-.008-97.855-.023-146.78.023-3.836 0-7.547-.476-9.066-4.37-1.692-4.348-1.977-9.02.687-13.208 1.75-2.746 4.719-3.191 7.813-3.183 26.977.03 53.953.023 80.934.023 38.449 0 76.89-.031 115.34.066 2.293.008 4.746.649 6.847 1.586 4.973 2.227 9.82 4.746 14.648 7.286 2.414 1.27 4.492 1.164 6.055-1.051 4.84-6.875 11.359-8.364 19.535-8.07 17.344.617 34.727.18 52.094.187 6.527.008 9.398 2.867 9.45 9.352.007.77 0 1.53-.009 2.293-.074 6.039-3.035 9.035-9.11 9.043-27.187.023-54.39.008-81.577.008-22.293.015-44.574.015-66.855.015zM351.24 363.5c-42.047 0-84.09-.016-126.14.023-3.887.008-7.586-.695-8.883-4.64-1.457-4.461-2.203-9.406 1.29-13.336 1.343-1.508 3.949-2.574 6.007-2.625 10.59-.258 21.188-.172 31.777-.047 1.531.023 3.164.754 4.567 1.496 4.921 2.59 9.738 5.375 14.637 8.016 2.8 1.523 3.69.949 3.804-2.243.25-7.312.25-7.328 7.715-7.328 63.996-.008 128 .008 191.99-.03 3.879-.009 7.563.663 8.906 4.605 1.524 4.46 2.25 9.496-1.289 13.3-1.586 1.715-4.785 2.688-7.262 2.704-27.188.187-54.383.12-81.57.113-15.19-.008-30.375-.008-45.555-.008zM466.99 311.04c8.25 2.25 10.332 5.043 10.316 13.617-.016 7.367-.016 7.375-7.398 7.383-16.816 0-33.641-.008-50.457-.016-4.13 0-4.77-.64-4.801-4.695-.008-.98 0-1.961 0-2.938-.024-8.242 2.18-11.14 10.492-13.398 0-2.242.015-4.605-.008-6.972-.016-2.188 1.027-3.207 3.207-3.172 1.637.031 3.277-.067 4.906.015 2.754.137 3.172-1.101 2.3-3.441-2.972-7.957-6-15.91-8.734-23.957-.964-2.832-1.53-5.91-1.601-8.898-.203-8.832-.074-17.668-.074-25.18-3.547-2.703-6.899-4.348-8.899-7.004-2.914-3.887-1.57-8.86-1.312-13.367.047-.746 2.097-1.97 3.222-1.977 18.566-.121 37.137-.09 55.703-.082 2.266 0 3.434 1.149 3.434 3.426.008 2.406.105 4.809-.04 7.207-.316 5.488-3.183 8.355-10.265 10.34.008 24.262.008 48.574.008 73.109zM372.41 237.99c0 5.96.16 11.746-.098 17.512-.074 1.758-1.11 3.555-2.023 5.164-.625 1.102-1.684 2.047-2.746 2.785-4.914 3.434-6.574 8.168-5.57 13.895.257 1.496.738 3.473 1.82 4.227 7.738 5.457 9.949 12.89 8.664 21.895-.348 2.453-.059 4.988-.059 7.398 9.352 3.086 12.523 8.832 10.453 18.54-.504 2.34-2.203 2.655-4.226 2.648-8.735-.032-17.473-.008-26.207-.008-9.278 0-18.566-.059-27.852.03-3.028.024-4.535-1.132-4.324-4.241.066-.98 0-1.97 0-2.946-.008-8.824 1.886-11.398 10.355-13.895v-72.91c-9.11-3.058-12.703-9.683-10.273-18.793.632-2.355 2.484-2.363 4.43-2.363 13.108.023 26.214.008 39.315.008 4.914 0 9.836.074 14.742-.016 2.938-.058 4.242 1.231 4.098 4.13-.059 1.093-.008 2.187-.016 3.277-.015 8.61-2.015 11.266-10.484 13.664zM278.02 310.96c9.102 2.559 13.172 9.95 10.258 18.777-.363 1.094-2.648 2.187-4.047 2.203-13.102.172-26.199.098-39.3.098-4.696 0-9.392.008-14.079-.008-4.46-.016-4.988-.567-4.996-5.164 0-.77.008-1.524.008-2.293.023-8.551 2.047-11.23 10.484-13.594 0-5.36-.008-10.801 0-16.25.008-3.977.379-4.34 4.273-4.371.989-.008 1.97.023 2.946-.008.535-.024 1.199.046 1.593-.227 3.086-2.187 1.41-5.41 1.442-8.144.008-.778-2-2.188-3.172-2.282-7.086-.597-7.094-.504-7.094-7.554v-34.207c-5.207-.98-9.312-3.313-10.195-8.801-.492-3.086-.363-6.317-.203-9.465.121-2.387 2.023-2.754 4.055-2.746 8.414.031 16.816.016 25.219.016 9.61 0 19.215-.016 28.824 0 3.66 0 4.414.777 4.453 4.386.023 2.074.09 4.153-.024 6.219-.292 4.867-3.156 8.453-7.91 9.61-1.976.476-3.156 1.382-4.097 3.206-2.649 5.133-5.563 10.13-8.301 15.215-1.403 2.598-.988 3.329 1.976 3.29 9.18-.137 7.828-.075 7.864 8.332.047 13.426.008 26.855.008 40.28.015 1.188.015 2.372.015 3.481z" style="fill:#f3f6f9;fill-opacity:1" transform="matrix(1.71593 0 0 1.71593 -333.045 -156.252)"/></g></svg>