<svg xmlns="http://www.w3.org/2000/svg" width="720" height="720" viewBox="0 0 540 540"><g style="fill:#1d1d1d;fill-opacity:1"><path d="M312.48 312.48c3.36-6.719 7.281-14 10.078-20.16-21.281-45.359-44.801-85.68-52.078-114.8-13.441-52.641 7.281-106.4 22.961-137.2C299.601 28 290.641 14 277.199 14h-103.6c-13.441 0-22.398 14-16.238 26.32 15.68 30.801 35.84 84.559 22.961 137.2-19.039 76.16-156.8 236.32-40.879 350 12.879 12.32 29.68 18.48 47.602 18.48h77.84c10.078 0 20.16-2.238 29.121-6.16-56.008-78.961-10.086-170.8 18.473-227.36z" style="fill:#1d1d1d;fill-opacity:1" transform="translate(-80.161 -10)"/><path d="M544.32 281.68c-9.52-38.078 5.04-76.16 16.238-98.559 4.48-8.398-2.238-18.48-11.762-18.48h-179.2c-9.52 0-16.238 10.078-11.762 18.48 11.199 21.84 25.762 60.48 16.238 98.559-14 54.879-112.56 169.68-29.121 250.88 8.96 8.96 21.281 13.441 34.16 13.441h160.72c12.32 0 25.199-4.48 34.16-13.441 82.883-81.758-15.676-196-29.676-250.88z" style="fill:#1d1d1d;fill-opacity:1" transform="translate(-80.161 -10)"/></g></svg>